<?xml version="1.0" encoding="utf-8"?>
<!-- Generated by IcoMoon.io -->
<!DOCTYPE svg PUBLIC "-//W3C//DTD SVG 1.1//EN" "http://www.w3.org/Graphics/SVG/1.1/DTD/svg11.dtd">
<svg version="1.1" xmlns="http://www.w3.org/2000/svg" xmlns:xlink="http://www.w3.org/1999/xlink" width="1024" height="1024" viewBox="0 0 1024 1024">
	<path fill="#ffffff" d="M834.544 622.688v0l-288-288c-8.736-9.056-20.976-14.688-34.544-14.688-0.032 0-0.064 0-0.112 0s-0.064 0-0.112 0-25.808 5.632-34.544 14.688l-0.016-0.016-287.872 288.128c-8.256 8.624-13.344 20.32-13.344 33.2 0 26.512 21.488 48 48 48 14.56 0 27.6-6.496 36.4-16.736l251.488-251.488 254.8 254.768c8.64 8.336 20.368 13.456 33.312 13.456 26.512 0 48-21.488 48-48 0-12.944-5.12-24.672-13.456-33.312z" />
</svg>
