<?xml version="1.0" encoding="utf-8"?>
<!-- Generated by IcoMoon.io -->
<!DOCTYPE svg PUBLIC "-//W3C//DTD SVG 1.1//EN" "http://www.w3.org/Graphics/SVG/1.1/DTD/svg11.dtd">
<svg version="1.1" xmlns="http://www.w3.org/2000/svg" xmlns:xlink="http://www.w3.org/1999/xlink" width="1024" height="1024" viewBox="0 0 1024 1024">
	<path fill="#454f5c" d="M944.944-0.096h-865.872c-43.552 0-78.864 35.328-78.864 78.912v869.664c0 43.6 35.312 75.648 78.864 75.648h865.872c43.536 0 78.848-32.032 78.848-75.648v-869.664c-0.016-43.584-35.296-78.912-78.848-78.912zM537.84 339.184c-24.992-14.592-44.848-26.144-69.616-26.144-24.368 0-45.376 6.128-55.952 16.384-10.576 10.24-15.872 29.952-15.872 59.072v43.056h130.368l-28.288 119.904h-102.096v398.304h-163.664v-398.32h-76.576v-119.904h76.592v-45.744c0-48.192 5.68-77.072 17.072-100.816 11.376-23.728 33.424-50.144 63.968-65.056 30.544-14.912 75.856-22.384 122.576-22.384 47.92 0 85.392 15.904 131.328 28.848l-29.84 112.8z" />
</svg>
