<?xml version="1.0" encoding="utf-8"?>
<!-- Generated by IcoMoon.io -->
<!DOCTYPE svg PUBLIC "-//W3C//DTD SVG 1.1//EN" "http://www.w3.org/Graphics/SVG/1.1/DTD/svg11.dtd">
<svg version="1.1" xmlns="http://www.w3.org/2000/svg" xmlns:xlink="http://www.w3.org/1999/xlink" width="1024" height="1024" viewBox="0 0 1024 1024">
<g>
</g>
	<path fill="#454f5c" d="M202.708 797.872c-10.928 10.954-16.414 25.184-16.414 39.538 0 14.318 5.486 28.576 16.414 39.534 10.922 10.948 25.182 16.386 39.502 16.386 14.192 0 28.188-5.294 39.176-15.964l219.954-275.736-48.072-54.352-250.56 250.594zM901.736 157.080l-29.102-29.17-352.13 352.098 110.072 97.29c3.010-1.796 5.82-3.922 8.372-6.412l262.79-347.942c10.462-10.428 13.67-21.026 13.67-32.926-0.002-11.972-4.514-23.846-13.672-32.938zM464.058 456.89l28.258-28.254c15.042-15.046 11.444-43.098-8.114-62.688l-231.46-231.46-28.516 28.442 204.576 204.554-29.102 29.13-204.576-204.544-29.89 29.832 204.582 204.578-29.176 29.11-204.512-204.528-28.454 28.458 231.53 231.486c19.554 19.564 47.616 23.198 62.658 8.142l28.252-28.254 341.076 386.216c10.926 10.72 25.052 16.082 39.246 16.082 14.39 0 28.646-5.424 39.568-16.382 10.988-10.95 16.35-25.18 16.35-39.532 0-14.226-5.362-28.394-16.088-39.312l-386.208-341.076z" />
</svg>
