<?xml version="1.0" encoding="utf-8"?>
<!-- Generated by IcoMoon.io -->
<!DOCTYPE svg PUBLIC "-//W3C//DTD SVG 1.1//EN" "http://www.w3.org/Graphics/SVG/1.1/DTD/svg11.dtd">
<svg version="1.1" xmlns="http://www.w3.org/2000/svg" xmlns:xlink="http://www.w3.org/1999/xlink" width="1024" height="1024" viewBox="0 0 1024 1024">
<g>
</g>
	<path fill="#454f5c" d="M525.74 143.384v-72.952h-50.080v72.952h-403.782v129.188h44.288v487.812h308.572l-187.724 153.724 31.72 38.742 235.038-192.466h1.664l235.042 192.466 31.726-38.756-187.736-153.71h307.364v-487.812h53.382v-129.188h-419.474zM841.754 710.306h-675.512v-437.734h675.512v437.734zM330.638 597.534v-130.168h130.168c0-71.884-58.276-130.162-130.168-130.162-71.884 0-130.158 58.278-130.158 130.162 0 71.888 58.274 130.168 130.158 130.168zM367.208 633.032c71.884 0 130.168-58.282 130.168-130.174h-130.168v130.174zM765.322 365.778h-166.484v50.076h166.484v-50.076zM765.322 457.688h-166.484v50.072h166.484v-50.072zM765.322 549.592h-166.484v50.092h166.484v-50.092z" />
</svg>
