<?xml version="1.0" encoding="UTF-8" standalone="no"?>
<svg width="37px" height="27px" viewBox="0 0 37 27" version="1.1" xmlns="http://www.w3.org/2000/svg" xmlns:xlink="http://www.w3.org/1999/xlink" xmlns:sketch="http://www.bohemiancoding.com/sketch/ns">
    <!-- Generator: Sketch 3.4.2 (15855) - http://www.bohemiancoding.com/sketch -->
    <title>X-small_A_40x40px</title>
    <desc>Created with Sketch.</desc>
    <defs></defs>
    <g id="Page-1" stroke="none" stroke-width="1" fill="none" fill-rule="evenodd" sketch:type="MSPage">
        <path d="M19.5051,22.5745 C20.0911,23.8345 21.1281,24.8815 22.5071,25.4555 C23.9231,26.0395 25.4831,26.0395 26.8981,25.4555 C28.3151,24.8665 29.4181,23.7655 30.0051,22.3485 L35.5601,8.9365 C36.1461,7.5225 36.1461,5.9625 35.5601,4.5445 C34.9721,3.1305 33.8691,2.0265 32.4531,1.4395 C31.0381,0.8535 29.4791,0.8535 28.0631,1.4395 C26.6461,2.0265 25.5431,3.1305 24.9571,4.5445 L17.4911,22.5745 C16.9061,23.8325 15.8681,24.8815 14.4881,25.4555 C11.5651,26.6655 8.20110005,25.2695 6.99110005,22.3455 L1.43710005,8.9365 C0.226100046,6.0135 1.61810005,2.6505 4.54210005,1.4395 C7.46510005,0.2295 10.8281,1.6215 12.0381,4.5445 L19.5051,22.5745 L19.5051,22.5745 Z" id="X-small_A_40x40px" stroke="#FFFFFF" stroke-linecap="round" stroke-linejoin="round" sketch:type="MSShapeGroup"></path>
    </g>
</svg>